<?xml version="1.0" standalone="no"?>
<!DOCTYPE svg PUBLIC "-//W3C//DTD SVG 20010904//EN"
 "http://www.w3.org/TR/2001/REC-SVG-20010904/DTD/svg10.dtd">
<svg version="1.0" xmlns="http://www.w3.org/2000/svg"
 width="73.000000pt" height="73.000000pt" viewBox="0 0 73.000000 73.000000"
 preserveAspectRatio="xMidYMid meet">
<metadata>
Created by potrace 1.15, written by Peter Selinger 2001-2017
</metadata>
<g transform="translate(0.000000,73.000000) scale(0.100000,-0.100000)"
fill="#000000" stroke="none">
<path d="M0 365 l0 -365 365 0 365 0 0 365 0 365 -365 0 -365 0 0 -365z m470
280 c-9 -10 -31 -15 -74 -15 l-62 0 -37 -63 c-52 -89 -51 -91 33 -85 39 3 70
1 70 -3 0 -5 -36 -9 -80 -9 l-80 0 -35 -70 c-35 -70 -35 -70 -14 -79 33 -12 6
-23 -36 -15 -19 3 -37 9 -40 13 -2 4 14 36 37 71 44 71 128 223 128 233 0 4
-7 7 -15 7 -8 0 -15 3 -15 8 0 4 37 8 83 9 45 2 96 7 112 11 36 11 42 8 25
-13z m102 -235 c48 -14 53 -23 31 -62 l-18 -33 -3 26 c-5 46 -41 66 -108 61
-54 -5 -167 -148 -180 -231 -12 -73 27 -99 119 -79 37 7 62 23 108 65 61 57
84 65 54 19 -41 -62 -122 -101 -213 -101 -57 0 -66 3 -88 28 -32 38 -31 80 7
155 63 127 173 184 291 152z"/>
</g>
</svg>
