<?xml version="1.0" standalone="no"?>
<!DOCTYPE svg PUBLIC "-//W3C//DTD SVG 20010904//EN"
 "http://www.w3.org/TR/2001/REC-SVG-20010904/DTD/svg10.dtd">
<svg version="1.0" xmlns="http://www.w3.org/2000/svg"
 width="700.000000pt" height="700.000000pt" viewBox="0 0 700.000000 700.000000"
 preserveAspectRatio="xMidYMid meet">
<metadata>
Created by potrace 1.11, written by Peter Selinger 2001-2013
</metadata>
<g transform="translate(0.000000,700.000000) scale(0.100000,-0.100000)"
fill="#000000" stroke="none">
<path d="M0 3500 l0 -3500 3500 0 3500 0 0 3500 0 3500 -3500 0 -3500 0 0
-3500z m4579 2860 c24 -12 17 -45 -21 -106 -75 -118 -179 -168 -418 -199 -25
-3 -245 -8 -490 -11 l-445 -5 -17 -22 c-10 -12 -18 -26 -18 -30 0 -5 -8 -21
-19 -35 -10 -15 -29 -47 -43 -72 -25 -45 -270 -462 -288 -490 -5 -8 -33 -58
-63 -110 -30 -52 -65 -113 -77 -135 -104 -183 -170 -346 -170 -421 0 -43 44
-89 101 -105 69 -19 325 -16 619 7 100 9 445 9 495 1 97 -15 124 -27 103 -44
-20 -16 -75 -31 -158 -42 -197 -28 -323 -32 -870 -33 l-498 0 -210 -422 c-300
-600 -326 -654 -360 -742 -66 -171 -53 -202 108 -269 134 -56 162 -102 85
-140 -33 -16 -63 -20 -170 -22 -71 -1 -155 2 -185 8 -170 29 -234 43 -321 70
-52 17 -108 40 -123 53 -28 21 -28 24 -16 62 34 109 136 296 322 594 98 158
327 541 377 633 9 16 21 36 26 45 6 9 64 112 129 227 65 116 134 236 153 268
18 32 33 60 33 62 0 2 13 26 28 52 30 51 44 76 195 353 114 211 268 515 296
588 l21 53 -26 24 c-18 17 -42 26 -82 30 -126 13 -182 37 -182 76 0 13 12 21
38 28 139 35 293 49 752 66 166 6 304 14 350 20 19 2 76 7 125 10 50 3 101 8
115 10 14 2 61 6 105 10 44 4 87 8 95 10 8 1 40 6 71 9 31 4 67 9 80 11 13 3
39 7 59 10 42 6 41 6 183 43 121 32 178 38 206 22z m496 -2354 c102 -11 148
-17 195 -26 25 -6 56 -12 70 -14 115 -19 328 -88 425 -139 159 -82 175 -192
60 -408 -117 -221 -210 -388 -213 -384 -3 2 -6 17 -8 32 -23 225 -38 316 -60
370 -87 219 -231 333 -496 394 -74 17 -133 22 -288 25 -112 2 -218 -1 -250 -7
-511 -99 -1482 -1326 -1670 -2110 -29 -121 -35 -186 -34 -344 1 -124 4 -149
28 -219 44 -130 122 -222 231 -275 123 -59 189 -73 365 -76 163 -3 250 5 435
39 44 9 94 18 110 21 17 3 40 7 52 10 13 3 24 5 25 5 11 -3 225 78 282 107
176 88 409 264 666 503 337 314 564 480 625 456 24 -9 15 -51 -29 -137 -240
-472 -768 -856 -1398 -1018 -268 -69 -427 -86 -803 -86 -351 1 -436 13 -556
76 -163 87 -351 341 -406 549 -18 69 -25 295 -11 378 20 116 83 334 118 407 5
11 21 49 35 85 26 62 171 358 212 430 101 177 252 395 368 530 68 79 276 280
355 343 357 284 767 452 1180 483 47 4 86 7 87 8 5 5 242 -2 298 -8z"/>
</g>
</svg>
